<?xml version="1.0" encoding="UTF-8"?>
<svg version="1.1" xmlns="http://www.w3.org/2000/svg" width="64" height="64">
<circle cx="32" cy="32" r="32" fill="black"/>
<path d="M0 0 C0 1.32 0 2.64 0 4 C-2.1875 5.921875 -2.1875 5.921875 -5 7.75 C-5.928125 8.36359375 -6.85625 8.9771875 -7.8125 9.609375 C-8.534375 10.06828125 -9.25625 10.5271875 -10 11 C-5.6493649 14.53542734 -1.17761602 17.89545399 3.3125 21.25 C4.05306641 21.80429687 4.79363281 22.35859375 5.55664062 22.9296875 C7.37054713 24.28719172 9.18501238 25.64394177 11 27 C8.48736742 32.71248092 3.63010013 35.40575141 -1.375 38.75 C-2.22578125 39.33910156 -3.0765625 39.92820313 -3.953125 40.53515625 C-8.0158758 43.28795469 -11.07517518 45.27304855 -16 46 C-16 44.68 -16 43.36 -16 42 C-13.8125 40.078125 -13.8125 40.078125 -11 38.25 C-10.071875 37.63640625 -9.14375 37.0228125 -8.1875 36.390625 C-7.1046875 35.70226563 -7.1046875 35.70226563 -6 35 C-8.84470221 32.66800574 -11.74124517 30.44448998 -14.734375 28.30859375 C-15.71857422 27.60379883 -15.71857422 27.60379883 -16.72265625 26.88476562 C-18.08642473 25.91120836 -19.45368943 24.94253201 -20.82421875 23.97851562 C-21.47519531 23.50994141 -22.12617188 23.04136719 -22.796875 22.55859375 C-23.38823242 22.13892334 -23.97958984 21.71925293 -24.58886719 21.28686523 C-26 20 -26 20 -27 17 C-21.52246485 12.46217743 -15.92564066 8.11528039 -10.125 4 C-9.05507813 3.236875 -7.98515625 2.47375 -6.8828125 1.6875 C-4 0 -4 0 0 0 Z M-16 14 C-17.32 15.32 -18.64 16.64 -20 18 C-13.87987207 23.03409271 -7.68364774 27.73796376 -1 32 C1.53673288 30.6446674 1.53673288 30.6446674 4 29 C4 28.34 4 27.68 4 27 C2.55123509 25.71195908 2.55123509 25.71195908 0.640625 24.46875 C-0.06320313 23.98792969 -0.76703125 23.50710937 -1.4921875 23.01171875 C-2.60980469 22.26341797 -2.60980469 22.26341797 -3.75 21.5 C-4.47960938 21.00113281 -5.20921875 20.50226562 -5.9609375 19.98828125 C-9.23455675 17.76817219 -12.42722632 15.71191268 -16 14 Z " fill="#FFFFFF" transform="translate(40,9)"/>
</svg>
